<svg xmlns="http://www.w3.org/2000/svg" width="42" height="42" viewBox="0 0 42 42" fill="none">
  <!-- Figma 3593:50070 — More content (Illustrator export, img-safe) -->
  <path
    fill="#fff"
    fill-opacity="0.5"
    d="M21,.5c11.3,0,20.5,9.2,20.5,20.5s-9.2,20.5-20.5,20.5S.5,32.3.5,21,9.7.5,21,.5Z"
  />
  <path
    fill="none"
    stroke="#dfeaff"
    d="M21,.5c11.3,0,20.5,9.2,20.5,20.5s-9.2,20.5-20.5,20.5S.5,32.3.5,21,9.7.5,21,.5Z"
  />
  <path
    fill="#1c49c2"
    d="M21,13.2c-.5,0-.9.4-.9.9v11.8c0,0-2-2.4-2-2.4l-1.8-1.8c-.2-.2-.4-.3-.7-.3-.5,0-.9.4-.9.9s0,.5.3.7l5.4,5.4c.2.2.4.3.7.3s.5,0,.7-.3l5.4-5.4c.2-.2.3-.4.3-.7,0-.5-.4-.9-.9-.9s-.5.1-.6.3l-1.9,1.8-2.1,2.4v-1.8c0,0,0-10.1,0-10.1,0-.5-.4-.9-.9-.9Z"
  />
</svg>
