<svg width="22" height="25" viewBox="0 0 22 25" fill="none" xmlns="http://www.w3.org/2000/svg">
<path d="M10.4725 7.01892C10.1575 6.9378 9.87089 6.87826 9.62414 6.83059C8.98327 6.70678 8.92752 6.35407 9.49898 6.03865C9.71899 5.91721 9.97332 5.77217 10.2479 5.59789C11.8301 4.64149 12.8319 3.26367 13.2537 1.46358C13.3348 1.14867 13.3943 0.862017 13.442 0.615273C13.5658 -0.0256022 13.9185 -0.081347 14.2339 0.490106C14.3554 0.710122 14.5004 0.964445 14.6747 1.23899C15.6311 2.82125 17.0089 3.82298 18.809 4.2448C19.1239 4.32591 19.4106 4.38545 19.6573 4.43312C20.2982 4.55694 20.3539 4.90964 19.7825 5.22506C19.5625 5.34651 19.3081 5.49154 19.0336 5.66582C17.4513 6.62222 16.4496 8.00005 16.0278 9.80013C15.9467 10.115 15.8871 10.4017 15.8395 10.6484C15.7156 11.2893 15.3629 11.3451 15.0475 10.7736C14.9261 10.5536 14.781 10.2993 14.6068 10.0247C13.6504 8.44246 12.2725 7.44073 10.4725 7.01892Z" fill="#1C49C2"/>
<path d="M15.5158 13.7943C15.3404 13.6774 15.1777 13.5797 15.0369 13.4978C14.6711 13.2851 14.7123 13.0574 15.1295 12.9864C15.2901 12.9591 15.4767 12.9247 15.6819 12.8767C16.8546 12.6294 17.7621 12.0002 18.4048 10.9886C18.5217 10.8132 18.6194 10.6505 18.7013 10.5097C18.914 10.1439 19.1417 10.1852 19.2127 10.6023C19.24 10.7629 19.2744 10.9495 19.3224 11.1548C19.5697 12.3275 20.1989 13.2349 21.2105 13.8776C21.3859 13.9945 21.5486 14.0922 21.6894 14.1741C22.0552 14.3868 22.0139 14.6146 21.5968 14.6855C21.4362 14.7128 21.2496 14.7473 21.0443 14.7953C19.8716 15.0426 18.9642 15.6718 18.3215 16.6833C18.2046 16.8587 18.1069 17.0214 18.025 17.1622C17.8123 17.528 17.5845 17.4868 17.5136 17.0696C17.4863 16.909 17.4518 16.7224 17.4038 16.5172C17.1566 15.3445 16.5273 14.4371 15.5158 13.7943Z" fill="#1C49C2"/>
<path fill-rule="evenodd" clip-rule="evenodd" d="M5.60964 9.57785C8.33334 8.18453 11.3041 8.70839 12.1655 10.2885C12.7242 11.3336 12.4369 12.3488 11.4078 12.865C9.67057 13.736 8.80597 12.0885 7.22339 12.7918C5.42169 13.5928 5.72591 15.6121 6.35619 16.8669C7.12395 18.3952 8.56096 19.4481 10.1569 18.6319C11.563 17.9125 11.4594 16.1159 12.7699 15.3904C13.7926 14.8103 14.8598 15.3625 15.2869 16.1604C15.7798 17.0819 15.8707 20.2615 11.9893 22.3096C8.97285 23.901 4.52542 23.5908 2.48596 19.4442C0.513132 15.4326 2.10569 11.3705 5.60964 9.57785Z" fill="#4657C7"/>
</svg>
