<svg preserveAspectRatio="none" width="100%" height="100%" overflow="visible" style="display: block;" viewBox="0 0 21.0003 20.4617" fill="none" xmlns="http://www.w3.org/2000/svg">
<g id="Icons">
<path id="Star 1" d="M14.2007 0.183066C14.245 0.307513 14.2863 0.426497 14.3262 0.541198C14.6229 1.3954 14.8189 1.95981 15.5277 2.73048C16.229 3.4929 17.0208 3.74458 18.0234 4.06341L18.0465 4.07069C18.1599 4.10678 18.2373 4.21281 18.238 4.33297C18.239 4.45335 18.1625 4.56012 18.0495 4.5975C17.9578 4.62791 17.8685 4.65694 17.7815 4.68521C16.9241 4.9642 16.3045 5.16576 15.527 5.92807C14.7493 6.6905 14.5406 7.33683 14.2517 8.2313C14.2257 8.31173 14.1992 8.39366 14.1719 8.47709C14.1351 8.58922 14.0319 8.66537 13.915 8.66665C13.7981 8.66794 13.6933 8.59404 13.6541 8.48277C13.6125 8.36442 13.5734 8.25058 13.5354 8.14048C13.2473 7.30234 13.0391 6.69681 12.3209 5.927C11.648 5.20581 10.9414 4.97619 10.0468 4.68553C9.95266 4.65501 9.85718 4.62395 9.7599 4.59172C9.64758 4.55455 9.5716 4.44874 9.57139 4.32933V4.3289C9.57139 4.2097 9.64694 4.10378 9.75906 4.0663C9.86047 4.03235 9.95849 4.00011 10.0538 3.96884C10.9285 3.6816 11.5064 3.49183 12.3221 2.72898C13.1168 1.98637 13.3367 1.28863 13.615 0.405399C13.6371 0.335144 13.6596 0.263924 13.6826 0.191741C13.7185 0.0790747 13.8214 0.00207189 13.9385 3.70454e-05C14.0556 -0.0018907 14.1611 0.0715779 14.2007 0.182959V0.183066Z" fill="var(--fill-0, #4657C7)"/>
<path id="Star 2" d="M18.1161 8.79751C18.1478 8.8864 18.1773 8.97139 18.2057 9.05332C18.4177 9.66347 18.5577 10.0666 19.064 10.6171C19.5649 11.1617 20.1305 11.3414 20.8466 11.5692L20.8631 11.5744C20.9442 11.6002 20.9994 11.6759 21 11.7617C21.0006 11.8477 20.946 11.924 20.8653 11.9507C20.7998 11.9724 20.736 11.9931 20.6739 12.0133C20.0614 12.2126 19.6188 12.3566 19.0635 12.9011C18.508 13.4457 18.3589 13.9073 18.1525 14.5462C18.134 14.6037 18.1151 14.6622 18.0955 14.7218C18.0693 14.8019 17.9956 14.8563 17.9121 14.8572C17.8286 14.8581 17.7537 14.8053 17.7257 14.7259C17.696 14.6413 17.668 14.56 17.6409 14.4814C17.4351 13.8827 17.2864 13.4502 16.7734 12.9003C16.2928 12.3852 15.7881 12.2212 15.149 12.0136C15.0818 11.9918 15.0136 11.9696 14.9441 11.9465C14.8639 11.92 14.8096 11.8444 14.8095 11.7591V11.7588C14.8095 11.6737 14.8635 11.598 14.9435 11.5712C15.016 11.547 15.086 11.524 15.154 11.5016C15.7789 11.2965 16.1916 11.1609 16.7743 10.616C17.342 10.0856 17.499 9.5872 17.6978 8.95632C17.7136 8.90614 17.7296 8.85527 17.7461 8.80371C17.7717 8.72323 17.8452 8.66823 17.9289 8.66677C18.0125 8.6654 18.0878 8.71788 18.1161 8.79743V8.79751Z" fill="var(--fill-0, #4657C7)"/>
<path id="Subtract" d="M5.80591 6.22924C8.81881 5.59792 11.5635 6.89215 11.9817 8.65404C12.2475 9.81668 11.7006 10.7273 10.5647 10.9558C8.64742 11.3415 8.24436 9.51245 6.52173 9.77611C4.56044 10.0765 4.32026 12.1177 4.59985 13.5027C4.94044 15.1898 6.05785 16.5923 7.82348 16.2224C9.37874 15.8962 9.75369 14.1254 11.218 13.7683C12.3644 13.476 13.254 14.2938 13.4573 15.1814C13.6918 16.2065 12.9376 19.3179 8.6272 20.2781C5.27757 21.024 1.04298 19.5446 0.161376 14.9792C-0.691417 10.5626 1.92971 7.04154 5.80591 6.22924Z" fill="var(--fill-0, #4657C7)"/>
</g>
</svg>
