<svg preserveAspectRatio="none" width="100%" height="100%" overflow="visible" style="display: block;" viewBox="0 0 42 42" fill="none" xmlns="http://www.w3.org/2000/svg">
<g id="Cai Icon - multicolor 1">
<path id="Vector" d="M29.4128 2.26677C29.4933 2.49293 29.5684 2.70916 29.6409 2.9176C30.1801 4.46996 30.5363 5.49565 31.8245 6.89619C33.0989 8.28175 34.5379 8.73912 36.3598 9.31853L36.4018 9.33177C36.608 9.39736 36.7486 9.59004 36.75 9.80841C36.7517 10.0272 36.6127 10.2212 36.4074 10.2891C36.2406 10.3444 36.0785 10.3972 35.9204 10.4485C34.362 10.9555 33.236 11.3218 31.8231 12.7072C30.4098 14.0928 30.0306 15.2673 29.5055 16.8929C29.4583 17.039 29.4101 17.1879 29.3605 17.3395C29.2936 17.5433 29.1061 17.6817 28.8937 17.684C28.6813 17.6864 28.4908 17.5521 28.4195 17.3499C28.3439 17.1348 28.2728 16.9279 28.2039 16.7278C27.6802 15.2047 27.3018 14.1042 25.9968 12.7053C24.7739 11.3946 23.4898 10.9773 21.8639 10.4491C21.6929 10.3937 21.5194 10.3372 21.3426 10.2786C21.1385 10.2111 21.0004 10.0188 21 9.80179C21 9.58517 21.1373 9.39191 21.3411 9.32379C21.5253 9.26209 21.7035 9.20351 21.8766 9.14667C23.4663 8.62468 24.5164 8.2798 25.9989 6.89347C27.4432 5.54392 27.8428 4.27591 28.3485 2.67082C28.3887 2.54314 28.4296 2.41371 28.4713 2.28253C28.5366 2.07778 28.7236 1.93785 28.9364 1.93415C29.1492 1.93065 29.3408 2.06436 29.4128 2.26677Z" fill="var(--fill-0, #A8B8F7)"/>
<path id="Vector_2" d="M33.7592 17.9217C33.8167 18.0833 33.8703 18.2377 33.922 18.3866C34.3072 19.4954 34.5617 20.2281 35.4818 21.2284C36.3921 22.2181 37.4199 22.5448 38.7213 22.9587L38.7513 22.9681C38.8986 23.015 38.999 23.1526 39 23.3086C39.0012 23.4649 38.9019 23.6035 38.7553 23.652C38.6361 23.6915 38.5203 23.7291 38.4074 23.7658C37.2943 24.128 36.49 24.3896 35.4808 25.3792C34.4713 26.3689 34.2004 27.2078 33.8253 28.3689C33.7916 28.4733 33.7573 28.5797 33.7218 28.688C33.674 28.8335 33.5401 28.9324 33.3883 28.934C33.2366 28.9357 33.1006 28.8398 33.0497 28.6954C32.9956 28.5417 32.9449 28.394 32.8956 28.251C32.5216 27.1631 32.2513 26.3771 31.3191 25.3778C30.4456 24.4416 29.5284 24.1436 28.3671 23.7663C28.2449 23.7266 28.121 23.6863 27.9947 23.6445C27.8489 23.5962 27.7503 23.4589 27.75 23.3039C27.75 23.1492 27.8481 23.0111 27.9936 22.9624C28.1252 22.9184 28.2525 22.8765 28.3761 22.8359C29.5117 22.4631 30.2617 22.2167 31.3206 21.2265C32.3523 20.2625 32.6377 19.3568 32.9989 18.2103C33.0277 18.1191 33.0568 18.0267 33.0867 17.933C33.1333 17.7867 33.2669 17.6868 33.4189 17.6841C33.5709 17.6816 33.7077 17.7771 33.7592 17.9217Z" fill="var(--fill-0, #001A70)"/>
<path id="Vector_3" d="M13.551 13.2537C19.0269 12.1063 24.0164 14.4596 24.7756 17.6619C25.2584 19.7745 24.2634 21.4283 22.1995 21.8436C18.7153 22.5445 17.9831 19.2211 14.8528 19.7C11.2881 20.2456 10.8515 23.9554 11.3596 26.4725C11.9786 29.5383 14.0085 32.087 17.217 31.4149C20.044 30.8224 20.7254 27.6028 23.387 26.9539C25.4702 26.4229 27.0859 27.9103 27.4553 29.5232C27.8815 31.3862 26.5121 37.04 18.679 38.785C12.5916 40.1408 4.89539 37.4529 3.29321 29.1561C1.74322 21.1295 6.50674 14.73 13.551 13.2537Z" fill="var(--fill-0, #4657C7)"/>
</g>
</svg>
