<?xml version="1.0" encoding="UTF-8"?>
<svg id="Layer_1" xmlns="http://www.w3.org/2000/svg" version="1.1" viewBox="0 0 24 24">
  <!-- Generator: Adobe Illustrator 29.5.1, SVG Export Plug-In . SVG Version: 2.1.0 Build 141)  -->
  <defs>
    <style>
      .st0 {
        fill: #4657c7;
      }
    </style>
  </defs>
  <path class="st0" d="M6.3,8.8c-.5-.5-1.3-.4-1.6.2-.3.5-.5,1-.7,1.6-.2.6.3,1.3,1,1.3h0c.4,0,.8-.3,1-.7.1-.4.3-.8.5-1.2.2-.4.2-.9-.2-1.2ZM5,13.9h0c-.7,0-1.2.6-1,1.3.2.5.4,1.1.7,1.6.3.6,1.1.7,1.6.2.3-.3.4-.8.2-1.2-.2-.4-.4-.8-.5-1.2-.1-.4-.5-.7-1-.7ZM7.9,20.1c.5.3,1.1.5,1.6.7.6.2,1.3-.3,1.3-1h0c0-.5-.3-.9-.7-1-.4-.1-.8-.3-1.2-.5-.4-.2-.9-.1-1.2.2h0c-.5.5-.4,1.3.2,1.6ZM12.9,4.9v-.7c0-.9-1.1-1.4-1.7-.7l-2.2,2.2c-.4.4-.4,1.1,0,1.5l2.2,2.1c.6.6,1.7.2,1.7-.7v-1.6c2.9.5,5.1,3,5.1,6s-1.9,5.1-4.4,5.8c-.4.1-.7.5-.7,1h0c0,.7.6,1.2,1.3,1,3.4-1,5.9-4.1,5.9-7.8s-3.1-7.6-7.1-8.1Z"/>
  <path class="st0" d="M13.1,14.6c.2.2.2.8,0,1-.2.2-.8.3-1,0l-1.9-2.1s1.9-2.8,2-3c.1-.2.7-.4,1-.2.4.2.3.8.2,1.1s-1.3,2.1-1.3,2.1l1,1.1Z"/>
</svg>