<svg xmlns="http://www.w3.org/2000/svg" viewBox="0 0 24 24" width="24" height="24" fill="none">
  <!-- Native iOS-style down chevron (sheet dismiss). Figma ref 1180:24527.
       Edit here: src/assets/cai-header/tos-sheet-back.svg -->
  <g transform="translate(4.7816 7.84147)">
    <path
      fill="#4657C7"
      d="M7.21842 8.31706C7.50326 8.30892 7.76367 8.20313 7.97526 7.97526L14.1602 1.64388C14.3392 1.46484 14.4368 1.23698 14.4368 0.968425C14.4368 0.431315 14.0137 0 13.4766 0C13.2161 0 12.9639 0.105794 12.7767 0.292969L7.22656 5.99772L1.66016 0.292969C1.47298 0.113932 1.22884 0 0.960286 0C0.423177 0 0 0.431315 0 0.968425C0 1.23698 0.0976562 1.46484 0.276693 1.64388L6.46973 7.97526C6.68945 8.20313 6.93359 8.31706 7.21842 8.31706Z"
    />
  </g>
</svg>
