<svg width="40" height="40" viewBox="0 0 40 40" fill="none" xmlns="http://www.w3.org/2000/svg">
<mask id="path-2-inside-1_3588_49724" fill="white">
<path d="M0 20C0 8.95431 8.95431 0 20 0V0C31.0457 0 40 8.95431 40 20V20C40 31.0457 31.0457 40 20 40V40C8.95431 40 0 31.0457 0 20V20Z"/>
</mask>
<path d="M0 20C0 8.95431 8.95431 0 20 0V0C31.0457 0 40 8.95431 40 20V20C40 31.0457 31.0457 40 20 40V40C8.95431 40 0 31.0457 0 20V20Z" fill="white"/>
<path d="M0 20M40 20M40 20M0 20M20 0M40 20M20 40M0 20M20 40V39C9.50659 39 1 30.4934 1 20H0H-1C-1 31.598 8.40202 41 20 41V40ZM40 20H39C39 30.4934 30.4934 39 20 39V40V41C31.598 41 41 31.598 41 20H40ZM20 0V1C30.4934 1 39 9.50659 39 20H40H41C41 8.40202 31.598 -1 20 -1V0ZM20 0V-1C8.40202 -1 -1 8.40202 -1 20H0H1C1 9.50659 9.50659 1 20 1V0Z" fill="#E62400" mask="url(#path-2-inside-1_3588_49724)"/>
<path d="M20 17.75C20.4125 17.75 20.75 17.4125 20.75 17V15.5H22.25C22.6625 15.5 23 15.1625 23 14.75C23 14.3375 22.6625 14 22.25 14H20.75V12.5C20.75 12.0875 20.4125 11.75 20 11.75C19.5875 11.75 19.25 12.0875 19.25 12.5V14H17.75C17.3375 14 17 14.3375 17 14.75C17 15.1625 17.3375 15.5 17.75 15.5H19.25V17C19.25 17.4125 19.5875 17.75 20 17.75ZM16.25 24.5C15.425 24.5 14.7575 25.175 14.7575 26C14.7575 26.825 15.425 27.5 16.25 27.5C17.075 27.5 17.75 26.825 17.75 26C17.75 25.175 17.075 24.5 16.25 24.5ZM23.75 24.5C22.925 24.5 22.2575 25.175 22.2575 26C22.2575 26.825 22.925 27.5 23.75 27.5C24.575 27.5 25.25 26.825 25.25 26C25.25 25.175 24.575 24.5 23.75 24.5ZM17.075 20.75H22.6625C23.225 20.75 23.72 20.4425 23.975 19.9775L26.51 15.38C26.7125 15.02 26.5775 14.5625 26.2175 14.36C25.8575 14.165 25.4 14.2925 25.205 14.6525L22.6625 19.25H17.3975L14.405 12.9275C14.285 12.665 14.015 12.5 13.73 12.5H12.5C12.0875 12.5 11.75 12.8375 11.75 13.25C11.75 13.6625 12.0875 14 12.5 14H13.25L15.95 19.6925L14.9375 21.5225C14.39 22.5275 15.11 23.75 16.25 23.75H24.5C24.9125 23.75 25.25 23.4125 25.25 23C25.25 22.5875 24.9125 22.25 24.5 22.25H16.25L17.075 20.75Z" fill="#D02000"/>
</svg>
