<svg width="424" height="56" viewBox="0 0 424 56" fill="none" xmlns="http://www.w3.org/2000/svg">
<mask id="path-2-inside-1_3619_4232" fill="white">
<path d="M8 18C8 12.4772 12.4772 8 18 8H198C203.523 8 208 12.4772 208 18V38C208 43.5228 203.523 48 198 48H18C12.4772 48 8 43.5228 8 38V18Z"/>
</mask>
<path d="M8 18C8 12.4772 12.4772 8 18 8H198C203.523 8 208 12.4772 208 18V38C208 43.5228 203.523 48 198 48H18C12.4772 48 8 43.5228 8 38V18Z" fill="white"/>
<path d="M18 8V9H198V8V7H18V8ZM208 18H207V38H208H209V18H208ZM198 48V47H18V48V49H198V48ZM8 38H9V18H8H7V38H8ZM18 48V47C13.0294 47 9 42.9706 9 38H8H7C7 44.0751 11.9249 49 18 49V48ZM208 38H207C207 42.9706 202.971 47 198 47V48V49C204.075 49 209 44.0751 209 38H208ZM198 8V9C202.971 9 207 13.0294 207 18H208H209C209 11.9249 204.075 7 198 7V8ZM18 8V7C11.9249 7 7 11.9249 7 18H8H9C9 13.0294 13.0294 9 18 9V8Z" fill="#1C49C2" mask="url(#path-2-inside-1_3619_4232)"/>
<path d="M48.9833 30.192C48.9833 32.259 47.1503 33 45.3563 33H41.0663V22.821H45.2913C46.9293 22.821 48.5413 23.692 48.5413 25.512C48.5413 26.526 47.9953 27.228 47.1113 27.683V27.709C48.3203 28.164 48.9833 28.84 48.9833 30.192ZM46.4743 25.837C46.4743 24.992 45.7073 24.758 45.0053 24.758H43.1203V26.955H44.8623C45.6033 26.955 46.4743 26.76 46.4743 25.837ZM46.9293 29.919C46.9293 28.97 46.0453 28.775 45.2653 28.775H43.1203V31.05H45.3303C46.0843 31.05 46.9293 30.829 46.9293 29.919ZM52.4431 33.13C51.1951 33.13 50.1031 32.35 50.1031 31.063V31.037C50.1031 29.321 51.7931 28.905 53.1971 28.905H53.8861C54.2631 28.905 54.4321 28.684 54.4321 28.398C54.4321 27.956 54.0811 27.54 53.3141 27.54C52.5861 27.54 52.1051 27.865 51.7671 28.476L50.2201 27.553C50.7791 26.526 51.8321 25.902 53.4051 25.902C55.1731 25.902 56.4211 26.825 56.4211 28.697V33H54.5491V32.142L54.5231 32.129C54.0031 32.87 53.1971 33.13 52.4431 33.13ZM53.0281 31.648C53.9251 31.648 54.4191 31.037 54.4191 30.309V30.153H53.1971C52.6511 30.153 52.1441 30.4 52.1441 30.946C52.1441 31.44 52.5471 31.648 53.0281 31.648ZM61.5396 33.156C59.3556 33.156 57.8086 31.609 57.8086 29.542C57.8086 27.488 59.4726 25.902 61.5526 25.902C63.0476 25.902 64.3736 26.643 64.8286 28.047L63.0476 28.788C62.8136 28.255 62.4236 27.761 61.5526 27.761C60.6556 27.761 59.8886 28.411 59.8886 29.516C59.8886 30.543 60.5516 31.284 61.5526 31.284C62.4236 31.284 62.8656 30.777 63.0866 30.257L64.8806 30.998C64.3216 32.467 63.0346 33.156 61.5396 33.156ZM68.2506 33H66.2226V22.405H68.2506V28.788L70.6556 26.058H73.2426L70.4476 29.256L73.3206 33H70.7596L68.3026 29.711H68.2506V33ZM81.8241 31.284V32.961C81.4731 33.065 81.1871 33.091 80.8751 33.091C79.0291 33.091 78.1191 32.064 78.1191 30.478V27.813H76.8711V26.058H78.1451V23.887H80.1471V26.058H81.8631V27.813H80.1471V30.231C80.1471 31.05 80.5891 31.336 81.3561 31.336C81.4601 31.336 81.6551 31.323 81.8241 31.284ZM82.8688 29.542C82.8688 27.475 84.5718 25.902 86.6778 25.902C88.7708 25.902 90.4478 27.436 90.4478 29.503C90.4478 31.596 88.7448 33.156 86.6518 33.156C84.5458 33.156 82.8688 31.635 82.8688 29.542ZM84.9488 29.516C84.9488 30.569 85.7158 31.297 86.6648 31.297C87.6138 31.297 88.3678 30.569 88.3678 29.516C88.3678 28.476 87.6008 27.748 86.6518 27.748C85.7028 27.748 84.9488 28.476 84.9488 29.516ZM101.837 30.088H96.7932C96.9232 30.959 97.6642 31.453 98.5092 31.453C99.0942 31.453 99.7442 31.141 100.056 30.621L101.525 31.583C100.94 32.636 99.9392 33.156 98.5352 33.156C96.4292 33.156 94.7262 31.674 94.7262 29.516C94.7262 27.514 96.4032 25.889 98.4052 25.889C100.472 25.889 101.863 27.306 101.863 29.36C101.863 29.607 101.863 29.854 101.837 30.088ZM96.8452 28.749H99.8352C99.7962 28.242 99.3672 27.54 98.3532 27.54C97.4432 27.54 96.9232 28.294 96.8452 28.749ZM108.376 32.116H108.35C107.7 33.065 106.66 33.13 106.192 33.13C104.177 33.13 102.89 31.388 102.89 29.516C102.89 27.761 104.229 25.928 106.218 25.928C106.621 25.928 107.583 26.006 108.298 26.851H108.324V22.418H110.339V33H108.376V32.116ZM108.376 29.516C108.376 28.476 107.609 27.761 106.66 27.761C105.711 27.761 104.944 28.476 104.944 29.516C104.944 30.569 105.711 31.297 106.66 31.297C107.609 31.297 108.376 30.569 108.376 29.516ZM111.971 23.64C111.971 24.329 112.543 24.888 113.219 24.888C113.934 24.888 114.493 24.329 114.493 23.64C114.493 22.938 113.934 22.379 113.219 22.379C112.543 22.379 111.971 22.938 111.971 23.64ZM114.259 33H112.218V26.058H114.259V33ZM120.418 31.284V32.961C120.067 33.065 119.781 33.091 119.469 33.091C117.623 33.091 116.713 32.064 116.713 30.478V27.813H115.465V26.058H116.739V23.887H118.741V26.058H120.457V27.813H118.741V30.231C118.741 31.05 119.183 31.336 119.95 31.336C120.054 31.336 120.249 31.323 120.418 31.284ZM128.558 33.156C126.374 33.156 124.827 31.609 124.827 29.542C124.827 27.488 126.491 25.902 128.571 25.902C130.066 25.902 131.392 26.643 131.847 28.047L130.066 28.788C129.832 28.255 129.442 27.761 128.571 27.761C127.674 27.761 126.907 28.411 126.907 29.516C126.907 30.543 127.57 31.284 128.571 31.284C129.442 31.284 129.884 30.777 130.105 30.257L131.899 30.998C131.34 32.467 130.053 33.156 128.558 33.156ZM132.812 29.542C132.812 27.475 134.515 25.902 136.621 25.902C138.714 25.902 140.391 27.436 140.391 29.503C140.391 31.596 138.688 33.156 136.595 33.156C134.489 33.156 132.812 31.635 132.812 29.542ZM134.892 29.516C134.892 30.569 135.659 31.297 136.608 31.297C137.557 31.297 138.311 30.569 138.311 29.516C138.311 28.476 137.544 27.748 136.595 27.748C135.646 27.748 134.892 28.476 134.892 29.516ZM146.321 33V29.152C146.321 28.372 145.944 27.8 145.112 27.8C144.254 27.8 143.864 28.437 143.864 29.152V33H141.836V26.058H143.851V26.968H143.864C144.397 26.032 145.554 25.928 145.827 25.928C147.595 25.928 148.336 27.254 148.336 28.684V33H146.321ZM154.352 31.284V32.961C154.001 33.065 153.715 33.091 153.403 33.091C151.557 33.091 150.647 32.064 150.647 30.478V27.813H149.399V26.058H150.673V23.887H152.675V26.058H154.391V27.813H152.675V30.231C152.675 31.05 153.117 31.336 153.884 31.336C153.988 31.336 154.183 31.323 154.352 31.284ZM162.508 30.088H157.464C157.594 30.959 158.335 31.453 159.18 31.453C159.765 31.453 160.415 31.141 160.727 30.621L162.196 31.583C161.611 32.636 160.61 33.156 159.206 33.156C157.1 33.156 155.397 31.674 155.397 29.516C155.397 27.514 157.074 25.889 159.076 25.889C161.143 25.889 162.534 27.306 162.534 29.36C162.534 29.607 162.534 29.854 162.508 30.088ZM157.516 28.749H160.506C160.467 28.242 160.038 27.54 159.024 27.54C158.114 27.54 157.594 28.294 157.516 28.749ZM162.93 33L165.426 29.503L163.008 26.058H165.283L166.531 28.021L167.818 26.058H170.054L167.61 29.464L170.119 33H167.844L166.518 30.959L165.179 33H162.93ZM175.49 31.284V32.961C175.139 33.065 174.853 33.091 174.541 33.091C172.695 33.091 171.785 32.064 171.785 30.478V27.813H170.537V26.058H171.811V23.887H173.813V26.058H175.529V27.813H173.813V30.231C173.813 31.05 174.255 31.336 175.022 31.336C175.126 31.336 175.321 31.323 175.49 31.284Z" fill="#1C49C2"/>
<path d="M216 18C216 12.4772 220.477 8 226 8H406C411.523 8 416 12.4772 416 18V38C416 43.5228 411.523 48 406 48H226C220.477 48 216 43.5228 216 38V18Z" fill="#005AFE"/>
<path d="M216 18C216 12.4772 220.477 8 226 8H406C411.523 8 416 12.4772 416 18V38C416 43.5228 411.523 48 406 48H226C220.477 48 216 43.5228 216 38V18Z" fill="url(#paint0_radial_3619_4232)" fill-opacity="0.75"/>
<path d="M216 18C216 12.4772 220.477 8 226 8H406C411.523 8 416 12.4772 416 18V38C416 43.5228 411.523 48 406 48H226C220.477 48 216 43.5228 216 38V18Z" fill="url(#paint1_radial_3619_4232)" fill-opacity="0.75"/>
<path d="M272.069 25.603C272.069 26.24 272.615 26.539 273.707 26.851C275.969 27.501 277.269 28.294 277.269 30.01C277.269 31.804 275.943 33.156 273.538 33.156C271.614 33.156 270.158 32.22 269.56 30.764L271.38 29.828C271.77 30.712 272.576 31.245 273.603 31.245C274.513 31.245 275.15 30.79 275.15 30.166C275.15 29.568 274.708 29.295 273.226 28.853C272.134 28.528 271.289 28.164 270.743 27.618C270.275 27.163 269.963 26.513 269.963 25.733C269.963 23.913 271.588 22.665 273.512 22.665C275.215 22.665 276.502 23.471 277.087 24.862L275.345 25.811C275.007 24.992 274.292 24.563 273.421 24.563C272.576 24.563 272.069 25.005 272.069 25.603ZM282.956 31.284V32.961C282.605 33.065 282.319 33.091 282.007 33.091C280.161 33.091 279.251 32.064 279.251 30.478V27.813H278.003V26.058H279.277V23.887H281.279V26.058H282.995V27.813H281.279V30.231C281.279 31.05 281.721 31.336 282.488 31.336C282.592 31.336 282.787 31.323 282.956 31.284ZM286.469 33.13C285.221 33.13 284.129 32.35 284.129 31.063V31.037C284.129 29.321 285.819 28.905 287.223 28.905H287.912C288.289 28.905 288.458 28.684 288.458 28.398C288.458 27.956 288.107 27.54 287.34 27.54C286.612 27.54 286.131 27.865 285.793 28.476L284.246 27.553C284.805 26.526 285.858 25.902 287.431 25.902C289.199 25.902 290.447 26.825 290.447 28.697V33H288.575V32.142L288.549 32.129C288.029 32.87 287.223 33.13 286.469 33.13ZM287.054 31.648C287.951 31.648 288.445 31.037 288.445 30.309V30.153H287.223C286.677 30.153 286.17 30.4 286.17 30.946C286.17 31.44 286.573 31.648 287.054 31.648ZM296.644 26.032V28.034C296.488 28.008 296.345 27.995 296.163 27.995C294.772 27.995 294.278 28.918 294.278 30.062V33H292.25V26.058H294.265V27.124H294.278C294.551 26.526 295.266 25.98 296.241 25.98C296.384 25.98 296.566 26.006 296.644 26.032ZM302.062 31.284V32.961C301.711 33.065 301.425 33.091 301.113 33.091C299.267 33.091 298.357 32.064 298.357 30.478V27.813H297.109V26.058H298.383V23.887H300.385V26.058H302.101V27.813H300.385V30.231C300.385 31.05 300.827 31.336 301.594 31.336C301.698 31.336 301.893 31.323 302.062 31.284ZM310.203 33.156C308.019 33.156 306.472 31.609 306.472 29.542C306.472 27.488 308.136 25.902 310.216 25.902C311.711 25.902 313.037 26.643 313.492 28.047L311.711 28.788C311.477 28.255 311.087 27.761 310.216 27.761C309.319 27.761 308.552 28.411 308.552 29.516C308.552 30.543 309.215 31.284 310.216 31.284C311.087 31.284 311.529 30.777 311.75 30.257L313.544 30.998C312.985 32.467 311.698 33.156 310.203 33.156ZM319.371 33V29.152C319.371 28.398 318.994 27.8 318.162 27.8C317.291 27.8 316.914 28.463 316.914 29.126V33H314.886V22.418H316.914V26.877H316.927C317.512 26.045 318.474 25.928 318.838 25.928C320.593 25.928 321.386 27.254 321.386 28.684V33H319.371ZM325.138 33.13C323.89 33.13 322.798 32.35 322.798 31.063V31.037C322.798 29.321 324.488 28.905 325.892 28.905H326.581C326.958 28.905 327.127 28.684 327.127 28.398C327.127 27.956 326.776 27.54 326.009 27.54C325.281 27.54 324.8 27.865 324.462 28.476L322.915 27.553C323.474 26.526 324.527 25.902 326.1 25.902C327.868 25.902 329.116 26.825 329.116 28.697V33H327.244V32.142L327.218 32.129C326.698 32.87 325.892 33.13 325.138 33.13ZM325.723 31.648C326.62 31.648 327.114 31.037 327.114 30.309V30.153H325.892C325.346 30.153 324.839 30.4 324.839 30.946C324.839 31.44 325.242 31.648 325.723 31.648ZM335.134 31.284V32.961C334.783 33.065 334.497 33.091 334.185 33.091C332.339 33.091 331.429 32.064 331.429 30.478V27.813H330.181V26.058H331.455V23.887H333.457V26.058H335.173V27.813H333.457V30.231C333.457 31.05 333.899 31.336 334.666 31.336C334.77 31.336 334.965 31.323 335.134 31.284ZM340.986 31.284V32.961C340.635 33.065 340.349 33.091 340.037 33.091C338.191 33.091 337.281 32.064 337.281 30.478V27.813H336.033V26.058H337.307V23.887H339.309V26.058H341.025V27.813H339.309V30.231C339.309 31.05 339.751 31.336 340.518 31.336C340.622 31.336 340.817 31.323 340.986 31.284ZM342.302 23.64C342.302 24.329 342.874 24.888 343.55 24.888C344.265 24.888 344.824 24.329 344.824 23.64C344.824 22.938 344.265 22.379 343.55 22.379C342.874 22.379 342.302 22.938 342.302 23.64ZM344.59 33H342.549V26.058H344.59V33ZM350.944 33V29.152C350.944 28.372 350.567 27.8 349.735 27.8C348.877 27.8 348.487 28.437 348.487 29.152V33H346.459V26.058H348.474V26.968H348.487C349.02 26.032 350.177 25.928 350.45 25.928C352.218 25.928 352.959 27.254 352.959 28.684V33H350.944ZM354.489 34.482L356.14 33.533C356.439 34.131 356.946 34.703 357.986 34.703C358.987 34.703 359.728 34.196 359.728 33.078V32.025H359.702C359.078 32.831 358.194 32.948 357.7 32.948C355.698 32.948 354.346 31.414 354.346 29.464C354.346 27.709 355.62 25.954 357.622 25.954C358.051 25.954 359.013 26.045 359.728 26.903H359.754V26.058H361.743V33.026C361.743 35.249 360.131 36.471 357.999 36.471C355.958 36.471 354.996 35.561 354.489 34.482ZM359.78 29.464C359.78 28.437 359.039 27.761 358.09 27.761C357.154 27.761 356.4 28.45 356.4 29.464C356.4 30.504 357.141 31.18 358.09 31.18C359.026 31.18 359.78 30.504 359.78 29.464Z" fill="white"/>
<defs>
<radialGradient id="paint0_radial_3619_4232" cx="0" cy="0" r="1" gradientTransform="matrix(200 40 -200 40 216 8)" gradientUnits="userSpaceOnUse">
<stop stop-color="#1C48C2" stop-opacity="0"/>
<stop offset="1" stop-color="#1C49C2"/>
</radialGradient>
<radialGradient id="paint1_radial_3619_4232" cx="0" cy="0" r="1" gradientUnits="userSpaceOnUse" gradientTransform="translate(316 48) rotate(-180) scale(100 40)">
<stop stop-color="#1C49C2"/>
<stop offset="1" stop-color="#1C48C2" stop-opacity="0"/>
</radialGradient>
</defs>
</svg>
